HIERARCHY
ROOT Hips
{
	OFFSET -0.001795 -0.223333 0.028219
	CHANNELS 6 Xposition Yposition Zposition Zrotation Yrotation Xrotation 
	JOINT LeftUpLeg
	{
		OFFSET 0.069520 -0.091406 -0.006815
		CHANNELS 3 Zrotation Yrotation Xrotation
		JOINT LeftLeg
		{
			OFFSET 0.034277 -0.375199 -0.004496
			CHANNELS 3 Zrotation Yrotation Xrotation
			JOINT LeftFoot
			{
				OFFSET -0.013596 -0.397961 -0.043693
				CHANNELS 3 Zrotation Yrotation Xrotation
				JOINT LeftToe
				{
					OFFSET 0.026358 -0.055791 0.119288
					CHANNELS 3 Zrotation Yrotation Xrotation
					End Site
					{
						OFFSET 0.000000 0.000000 0.000000
					}
				}
			}
		}
	}
	JOINT RightUpLeg
	{
		OFFSET -0.067670 -0.090522 -0.004320
		CHANNELS 3 Zrotation Yrotation Xrotation
		JOINT RightLeg
		{
			OFFSET -0.038290 -0.382569 -0.008850
			CHANNELS 3 Zrotation Yrotation Xrotation
			JOINT RightFoot
			{
				OFFSET 0.015774 -0.398415 -0.042312
				CHANNELS 3 Zrotation Yrotation Xrotation
				JOINT RightToe
				{
					OFFSET -0.025372 -0.048144 0.123348
					CHANNELS 3 Zrotation Yrotation Xrotation
					End Site
					{
						OFFSET 0.000000 0.000000 0.000000
					}
				}
			}
		}
	}
	JOINT Spine
	{
		OFFSET -0.002533 0.108963 -0.026696
		CHANNELS 3 Zrotation Yrotation Xrotation
		JOINT Spine1
		{
			OFFSET 0.005487 0.135180 0.001092
			CHANNELS 3 Zrotation Yrotation Xrotation
			JOINT Spine2
			{
				OFFSET 0.001457 0.052922 0.025425
				CHANNELS 3 Zrotation Yrotation Xrotation
				JOINT Neck
				{
					OFFSET -0.002778 0.213870 -0.042857
					CHANNELS 3 Zrotation Yrotation Xrotation
					JOINT Head
					{
						OFFSET 0.005152 0.064970 0.051349
						CHANNELS 3 Zrotation Yrotation Xrotation
						End Site
						{
							OFFSET 0.000000 0.000000 0.000000
						}
					}
				}
				JOINT LeftShoulder
				{
					OFFSET 0.078845 0.121749 -0.034090
					CHANNELS 3 Zrotation Yrotation Xrotation
					JOINT LeftArm
					{
						OFFSET 0.090977 0.030469 -0.008868
						CHANNELS 3 Zrotation Yrotation Xrotation
						JOINT LeftForeArm
						{
							OFFSET 0.259612 -0.012772 -0.027456
							CHANNELS 3 Zrotation Yrotation Xrotation
							JOINT LeftHand
							{
								OFFSET 0.249234 0.008986 -0.001171
								CHANNELS 3 Zrotation Yrotation Xrotation
								End Site
								{
									OFFSET 0.000000 0.000000 0.000000
								}
							}
						}
					}
				}
				JOINT RightShoulder
				{
					OFFSET -0.081759 0.118833 -0.038615
					CHANNELS 3 Zrotation Yrotation Xrotation
					JOINT RightArm
					{
						OFFSET -0.096012 0.032551 -0.009143
						CHANNELS 3 Zrotation Yrotation Xrotation
						JOINT RightForeArm
						{
							OFFSET -0.253742 -0.013329 -0.021401
							CHANNELS 3 Zrotation Yrotation Xrotation
							JOINT RightHand
							{
								OFFSET -0.255298 0.007772 -0.005559
								CHANNELS 3 Zrotation Yrotation Xrotation
								End Site
								{
									OFFSET 0.000000 0.000000 0.000000
								}
							}
						}
					}
				}
			}
		}
	}
}
MOTION
Frames: 15
Frame Time: 0.050000
0.000000 0.948088 0.000000 -1.030684 -4.308802 2.416694 7.029166 -0.033070 0.525959 -3.554609 0.431248 -3.720592 3.414815 9.561562 11.033538 0.000000 0.000000 0.000000 -4.055014 0.228577 -1.194634 2.731687 -0.290413 -1.914620 -3.314410 -11.725068 12.111074 0.000000 0.000000 0.000000 -2.649343 -0.002324 2.838212 3.521866 -0.679727 -17.958297 -0.131280 1.776195 27.118937 1.276677 0.674126 -25.401999 0.000000 0.000000 0.000000 -19.973585 -3.993605 1.396231 -49.997274 -21.152785 0.386001 -78.955601 -66.773720 64.014277 0.000000 0.000000 0.000000 9.595219 11.052364 4.304028 40.757347 21.737903 0.992732 138.034212 79.271478 136.283363 0.000000 0.000000 0.000000 
0.000050 0.946969 0.001225 -1.269496 -4.648010 2.904024 7.444597 -0.004360 1.707196 -3.699179 0.453984 -5.753831 3.459125 9.519054 10.532935 0.000000 0.000000 0.000000 -3.924251 0.203689 -0.755504 2.461292 -0.285598 -3.008319 -2.545895 -10.433325 12.413271 0.000000 0.000000 0.000000 -2.903840 0.034486 1.515880 3.454323 -0.668587 -17.896358 0.561839 1.879483 28.181049 0.840528 0.931590 -25.886056 0.000000 0.000000 0.000000 -20.349400 -3.509022 1.190602 -48.838160 -22.511577 0.729837 -88.106423 -66.739847 72.602759 0.000000 0.000000 0.000000 8.854244 11.265931 4.371776 40.961333 23.944416 1.604105 134.856690 80.002470 133.360853 0.000000 0.000000 0.000000 
0.000092 0.947361 0.002173 -1.013664 -4.750099 2.747431 7.693824 -0.015516 1.281119 -4.125812 0.484413 -4.383985 2.866775 8.452031 10.221737 0.000000 0.000000 0.000000 -4.124015 0.227025 -1.028651 2.044725 -0.242944 -2.303144 -2.634715 -10.655462 12.595087 0.000000 0.000000 0.000000 -2.671287 0.031114 1.190961 3.786405 -0.792772 -17.534076 -0.098147 2.783374 27.850150 1.809270 0.363959 -23.762058 0.000000 0.000000 0.000000 -20.891708 -4.079581 1.256497 -47.808448 -22.757231 0.805042 -86.487496 -67.807375 71.622226 0.000000 0.000000 0.000000 11.000238 12.217697 5.032850 38.795770 24.701653 1.653624 135.878438 80.444130 135.034905 0.000000 0.000000 0.000000 
-0.000036 0.946504 0.003246 -0.861123 -4.333179 2.859042 7.835347 -0.021517 1.558133 -4.247833 0.489939 -4.820558 2.948578 8.713669 10.649834 0.000000 0.000000 0.000000 -4.412557 0.220090 -0.786481 2.403026 -0.272230 -2.360613 -2.905780 -10.914672 11.857681 0.000000 0.000000 0.000000 -3.155264 0.061243 0.220277 4.189198 -0.878634 -17.856277 -0.041740 2.352005 28.918521 1.899021 0.266888 -23.825652 0.000000 0.000000 0.000000 -20.906636 -3.882722 1.235686 -47.846724 -23.964147 1.178773 -86.550239 -68.155116 72.257536 0.000000 0.000000 0.000000 10.593659 12.206078 4.995066 38.805655 25.234232 1.723516 140.237067 79.324976 139.289895 0.000000 0.000000 0.000000 
-0.000317 0.946771 0.004484 -0.905765 -4.104528 2.418572 7.760528 -0.008869 1.829170 -3.909453 0.461584 -4.579095 2.795968 8.483937 10.658312 0.000000 0.000000 0.000000 -4.364556 0.174875 -0.165132 2.167595 -0.261078 -2.596246 -2.508209 -10.192568 11.987504 0.000000 0.000000 0.000000 -2.953714 0.052072 0.182866 4.187140 -0.915300 -17.275847 0.062569 2.248633 28.173214 1.794004 0.320641 -23.458945 0.000000 0.000000 0.000000 -20.523919 -4.034850 1.279931 -47.644749 -24.284808 1.394377 -85.527848 -69.745393 72.713948 0.000000 0.000000 0.000000 10.910736 12.480762 5.125069 38.382498 25.003861 1.688660 135.731699 78.806035 133.514433 0.000000 0.000000 0.000000 
-0.000635 0.946683 0.005575 -1.033971 -3.750122 2.432784 7.974188 -0.018435 1.974763 -4.308776 0.488873 -4.953719 3.054360 8.918482 10.489759 0.000000 0.000000 0.000000 -4.306665 0.152140 0.126434 2.254125 -0.271280 -2.701765 -2.453857 -10.035967 11.935087 0.000000 0.000000 0.000000 -2.965917 0.056042 -0.067948 4.174019 -0.824153 -18.456659 0.353895 2.149719 29.262935 1.686411 0.406053 -23.657200 0.000000 0.000000 0.000000 -19.857143 -3.899042 1.232529 -47.899880 -25.451911 1.789498 -84.269976 -70.988173 72.889186 0.000000 0.000000 0.000000 10.925766 12.659987 5.247097 38.386824 24.643876 1.485231 133.930926 78.784850 131.573637 0.000000 0.000000 0.000000 
-0.000930 0.946749 0.006374 -1.059125 -3.597626 2.292521 8.109827 -0.018780 2.116710 -4.202031 0.479520 -4.851628 2.988171 8.843593 10.595476 0.000000 0.000000 0.000000 -4.315882 0.147269 0.165019 2.338091 -0.272672 -2.382365 -2.294163 -9.625529 11.554712 0.000000 0.000000 0.000000 -2.845891 0.051595 -0.036365 4.136011 -0.826256 -18.225532 0.454351 1.986708 28.878278 1.649784 0.430016 -23.791478 0.000000 0.000000 0.000000 -20.004759 -4.101600 1.342207 -47.473224 -25.825676 1.938928 -82.556053 -72.740960 72.935299 0.000000 0.000000 0.000000 11.339345 12.806307 5.327691 38.526670 24.047504 1.352262 130.707784 78.671441 127.705538 0.000000 0.000000 0.000000 
-0.001101 0.946790 0.006921 -1.186414 -3.619199 2.228205 8.337515 -0.020413 2.213937 -4.375682 0.493200 -4.744675 3.097674 8.988074 10.399365 0.000000 0.000000 0.000000 -4.227025 0.148918 0.071047 2.449056 -0.273540 -1.950049 -2.216949 -9.299910 10.873815 0.000000 0.000000 0.000000 -2.604005 0.043708 0.110304 3.989967 -0.753779 -18.706408 0.442531 2.009873 29.066706 1.572181 0.484223 -23.889997 0.000000 0.000000 0.000000 -20.088250 -4.274345 1.446293 -47.298073 -26.221859 2.053694 -82.985727 -74.019594 74.645247 0.000000 0.000000 0.000000 11.835294 12.769758 5.356010 38.237963 23.545186 1.146132 127.857303 78.277356 124.092368 0.000000 0.000000 0.000000 
-0.001181 0.947016 0.007296 -1.227298 -3.719022 2.172386 8.327760 -0.013531 2.356706 -4.254933 0.484919 -4.776052 2.995661 8.808869 10.399858 0.000000 0.000000 0.000000 -4.237988 0.150279 0.060247 2.553840 -0.280303 -1.886412 -2.011411 -8.919584 10.869792 0.000000 0.000000 0.000000 -2.398181 0.040145 0.074551 3.841157 -0.723786 -18.550860 0.420401 1.993775 28.973844 1.670619 0.404633 -23.787751 0.000000 0.000000 0.000000 -20.283996 -4.340442 1.497849 -47.387736 -26.472411 2.171964 -83.863956 -74.714776 76.227138 0.000000 0.000000 0.000000 11.904558 12.654483 5.294140 38.091673 23.219339 1.038300 125.210826 78.191105 120.931459 0.000000 0.000000 0.000000 
-0.001229 0.947246 0.007666 -1.264699 -3.942133 2.119746 8.346539 -0.003482 2.536152 -4.330750 0.493016 -4.835610 3.182596 9.094017 10.342186 0.000000 0.000000 0.000000 -4.410913 0.157288 0.081649 2.690313 -0.286636 -1.683934 -1.749526 -8.377123 10.642927 0.000000 0.000000 0.000000 -2.290608 0.037781 0.080819 3.838697 -0.726562 -18.578885 0.435370 2.141936 28.820053 1.560900 0.472191 -23.700758 0.000000 0.000000 0.000000 -20.406206 -4.308291 1.467189 -47.469362 -26.648612 2.276396 -85.816629 -74.997714 78.402687 0.000000 0.000000 0.000000 11.788810 12.563284 5.241508 37.447928 22.702902 0.844413 122.784995 77.614032 117.551326 0.000000 0.000000 0.000000 
-0.001256 0.947194 0.008036 -1.271864 -4.043932 1.982627 8.363988 0.008181 2.834849 -4.293736 0.491092 -5.071627 3.271101 9.249486 10.410040 0.000000 0.000000 0.000000 -4.523963 0.148399 0.305234 2.729135 -0.293228 -1.943306 -1.610757 -8.136040 10.689022 0.000000 0.000000 0.000000 -2.056432 0.029046 0.222166 3.570595 -0.640481 -18.777699 0.409355 2.163485 28.752476 1.698214 0.372216 -23.570663 0.000000 0.000000 0.000000 -20.416565 -4.253262 1.447816 -47.448480 -26.452702 2.198094 -91.612467 -74.166059 83.324292 0.000000 0.000000 0.000000 11.461896 12.301092 5.089518 36.365969 22.593251 0.727773 120.676297 76.707313 114.132264 0.000000 0.000000 0.000000 
-0.001231 0.947100 0.008378 -1.268784 -4.367285 1.917252 8.379482 0.023506 3.109302 -4.362679 0.499095 -5.383743 3.388927 9.496451 10.830726 0.000000 0.000000 0.000000 -4.677796 0.151998 0.402230 2.823966 -0.300017 -2.044119 -1.299389 -7.583462 10.715530 0.000000 0.000000 0.000000 -1.886467 0.026559 0.183729 3.447574 -0.613805 -18.764737 0.192206 2.191332 28.510808 1.675099 0.336141 -23.191013 0.000000 0.000000 0.000000 -20.559010 -3.957439 1.317004 -47.224169 -26.103608 2.048910 -94.943625 -72.907330 85.418063 0.000000 0.000000 0.000000 10.924962 12.180133 4.961622 34.559098 22.670738 0.635659 119.600768 75.710846 111.574877 0.000000 0.000000 0.000000 
-0.001131 0.946782 0.008611 -1.322432 -4.764760 1.836194 8.419035 0.039102 3.313414 -4.243328 0.494599 -5.522459 3.469777 9.579472 10.723918 0.000000 0.000000 0.000000 -4.758670 0.151543 0.533991 2.830481 -0.300366 -2.211555 -1.062685 -7.220519 10.855060 0.000000 0.000000 0.000000 -1.746966 0.020791 0.289155 3.314189 -0.564362 -19.110608 0.158880 2.216568 28.744140 1.841951 0.195428 -23.208691 0.000000 0.000000 0.000000 -20.776656 -3.698077 1.244677 -46.784355 -25.423414 1.683178 -99.778843 -71.239765 88.774720 0.000000 0.000000 0.000000 10.170827 12.126376 4.852766 32.418289 23.083642 0.565340 119.458245 74.874768 110.176079 0.000000 0.000000 0.000000 
-0.000893 0.946605 0.008625 -1.373081 -5.277481 1.782396 8.451346 0.056674 3.478198 -4.169544 0.494579 -5.588636 3.633383 9.859633 11.023318 0.000000 0.000000 0.000000 -4.928141 0.168603 0.450395 2.908923 -0.302157 -2.155485 -0.795464 -6.757588 10.823282 0.000000 0.000000 0.000000 -1.546485 0.013480 0.404300 3.091371 -0.515552 -19.068074 0.103844 2.312007 28.490842 2.001720 0.044963 -22.910316 0.000000 0.000000 0.000000 -20.893680 -3.466742 1.164818 -46.298964 -24.389915 1.239743 -103.039754 -70.032806 90.959647 0.000000 0.000000 0.000000 9.446027 12.032610 4.727416 30.464023 23.378015 0.503692 120.116651 74.894878 110.558503 0.000000 0.000000 0.000000 
-0.000601 0.946532 0.008409 -1.547616 -5.625433 1.718101 8.578801 0.067489 3.646201 -4.157719 0.497317 -5.660311 3.822983 10.125578 10.884841 0.000000 0.000000 0.000000 -4.870609 0.175282 0.328119 2.971436 -0.303764 -2.096288 -0.614849 -6.530493 11.041734 0.000000 0.000000 0.000000 -1.438645 0.005297 0.595811 3.166311 -0.531776 -19.290557 -0.068281 2.280470 28.562055 2.330971 -0.191496 -23.024257 0.000000 0.000000 0.000000 -21.126262 -3.066565 1.006557 -46.352788 -23.186804 0.746927 -104.618443 -68.361434 91.007785 0.000000 0.000000 0.000000 8.724549 11.833684 4.564613 28.535635 24.023558 0.481860 122.188836 75.891028 113.525476 0.000000 0.000000 0.000000 
